<svg version="1.1" id="Layer_1" xmlns="http://www.w3.org/2000/svg" xmlns:xlink="http://www.w3.org/1999/xlink" x="0px" y="0px"
	 width="100%" viewBox="0 0 290 247" enable-background="new 0 0 290 247" xml:space="preserve">
<path fill="#FEFFFF" opacity="1.000000" stroke="none" 
	d="
M180.000000,248.000000 
	C120.000008,248.000000 60.500015,248.000000 1.000016,248.000000 
	C1.000011,165.666687 1.000011,83.333366 1.000005,1.000038 
	C97.666634,1.000025 194.333267,1.000025 290.999939,1.000013 
	C290.999939,83.333290 290.999939,165.666580 290.999969,247.999939 
	C254.166672,248.000000 217.333328,248.000000 180.000000,248.000000 
M169.662048,163.107010 
	C168.315033,156.172791 165.634430,150.182739 159.055862,146.487793 
	C152.232407,142.655273 146.101807,147.531311 139.369232,148.386780 
	C139.469070,142.024902 142.473038,138.065384 146.450577,134.590729 
	C151.378784,130.285614 156.512192,131.600494 161.846985,134.744797 
	C163.070969,132.072968 164.117630,130.037125 164.951721,127.917618 
	C166.913025,122.933769 166.383606,122.004387 161.108673,120.702049 
	C149.792770,117.908234 137.409912,123.261124 131.696625,134.439178 
	C124.357620,148.797958 123.641159,163.950577 129.820923,178.849716 
	C135.419922,192.348618 151.293533,195.525238 162.104721,185.753036 
	C168.521393,179.953018 170.276016,172.301682 169.662048,163.107010 
M189.399078,189.428329 
	C199.793518,193.411545 208.765411,190.437103 213.728577,180.379852 
	C221.196121,165.247726 221.008560,149.511230 215.174911,133.928360 
	C212.188263,125.950447 206.520309,120.306084 197.397400,120.150253 
	C188.186188,119.992920 182.957657,125.905670 179.298676,133.537857 
	C178.370987,135.472885 177.658234,137.550507 177.139648,139.635468 
	C174.484451,150.310669 174.389420,161.034286 177.144379,171.691727 
	C178.974365,178.770966 182.077164,185.129578 189.399078,189.428329 
M79.973122,178.487183 
	C77.408966,180.972977 77.919098,183.402420 80.697495,185.004974 
	C84.528290,187.214523 88.446503,189.814423 92.655983,190.721298 
	C104.098091,193.186356 114.138924,187.472778 117.835945,176.960297 
	C121.831497,165.598999 119.517502,153.997513 107.967781,149.046158 
	C107.156097,148.698196 106.536964,147.901077 105.590286,147.115280 
	C107.632759,144.879303 109.885361,143.188049 111.089340,140.936157 
	C113.704346,136.045090 116.112923,130.984085 117.958427,125.763649 
	C119.059013,122.650391 117.254608,120.942032 113.657974,121.002983 
	C104.167290,121.163811 94.671860,121.028130 85.179276,121.114464 
	C83.940826,121.125732 81.617134,121.828857 81.635498,122.073448 
	C81.928078,125.971237 82.284294,129.910095 83.293594,133.659897 
	C83.449074,134.237564 86.955208,134.198685 88.852821,133.965424 
	C93.445061,133.400925 98.002502,132.553284 102.573967,131.819763 
	C102.872368,132.497360 103.170769,133.174942 103.469170,133.852539 
	C100.682640,137.012161 97.869621,140.148911 95.116928,143.337738 
	C92.287338,146.615646 89.516640,149.944366 85.839256,154.292404 
	C89.379128,154.950668 91.285828,155.235779 93.158089,155.669495 
	C96.048607,156.339081 99.137291,156.657120 101.746071,157.933411 
	C107.080284,160.543045 108.446449,166.428009 105.359962,171.539459 
	C102.470764,176.324173 97.491440,177.437408 92.433380,174.265381 
	C90.513931,173.061646 88.815483,171.505554 86.623489,169.805389 
	C84.411331,172.682556 82.402275,175.295563 79.973122,178.487183 
M122.591911,41.085148 
	C120.201645,43.859371 115.712311,45.641987 120.026108,50.714390 
	C124.861450,56.400032 121.951698,63.070351 114.375984,63.823288 
	C109.488846,64.309013 109.586662,67.039513 109.424133,70.617416 
	C109.248619,74.480873 110.416817,76.356178 114.468582,76.869232 
	C121.797813,77.797295 124.594360,83.984253 120.212936,89.648155 
	C117.657394,92.951729 117.791504,95.050453 120.843597,98.016380 
	C123.882935,100.969917 126.047203,101.720116 129.630707,98.860855 
	C134.817123,94.722633 141.242905,97.526093 142.208954,104.188431 
	C142.774765,108.090576 144.110901,109.982063 148.543121,109.770844 
	C152.531464,109.580772 154.890945,109.234085 155.387115,104.348877 
	C156.105164,97.279274 162.912277,94.616966 168.486954,99.146431 
	C172.200195,102.163475 174.133347,100.492096 176.757065,97.888649 
	C179.284653,95.380600 180.692581,93.624054 177.828888,90.109566 
	C172.949585,84.121338 175.606934,77.823936 183.136063,76.855537 
	C186.702393,76.396835 188.560913,75.164635 188.101700,71.185127 
	C187.717453,67.855293 189.018875,64.340164 183.402512,63.805771 
	C175.404755,63.044800 172.994644,56.735424 178.049637,50.240021 
	C180.646255,46.903507 179.345001,45.116802 176.917801,42.799744 
	C174.449188,40.443146 172.717911,38.038067 168.781708,41.169594 
	C162.464355,46.195496 156.309418,43.646515 155.230194,35.728989 
	C154.749847,32.204979 153.589966,30.642061 149.935837,30.982576 
	C146.636047,31.290071 142.685486,29.883863 142.399643,35.514782 
	C142.293732,37.600986 141.537766,40.488548 140.049850,41.504448 
	C136.447159,43.964252 132.331635,45.342976 128.532074,41.167809 
	C127.095261,39.588959 125.199387,38.050850 122.591911,41.085148 
M193.556534,79.689697 
	C192.429199,82.773972 193.339554,87.660675 186.250748,85.867599 
	C187.502579,89.342308 187.733383,92.981216 189.492676,94.012421 
	C191.209259,95.018600 194.487625,93.360268 195.725937,93.126923 
	C195.725937,89.182907 195.198334,86.370872 195.809387,83.832993 
	C200.707413,63.489838 195.384399,46.436649 179.718597,32.633816 
	C178.327637,31.408278 176.452286,30.732521 174.801910,29.801420 
	C174.307556,30.254860 173.813202,30.708302 173.318848,31.161741 
	C189.619446,43.214691 196.753540,58.979645 193.556534,79.689697 
M170.849640,29.587788 
	C170.438705,26.785635 170.027756,23.983482 169.616821,21.181328 
	C169.175934,21.698849 168.735031,22.216368 168.294128,22.733887 
	C165.879745,22.852703 163.355057,23.492752 161.068253,23.008770 
	C140.791641,18.717419 123.962410,24.351974 110.604477,40.180779 
	C109.361717,41.653419 108.640839,43.566479 107.677650,45.275047 
	C108.075340,45.777451 108.473038,46.279858 108.870728,46.782261 
	C122.984459,27.772915 141.042435,20.738905 163.645569,26.937065 
	C163.472778,28.760059 163.356033,29.991703 163.148300,32.183388 
	C165.948700,31.297840 168.079681,30.623978 170.849640,29.587788 
M134.035736,110.662720 
	C131.280533,106.568230 129.076050,110.927719 126.601852,111.146996 
	C127.132103,113.902336 127.662354,116.657669 128.192596,119.413010 
	C128.649399,118.885826 129.106201,118.358650 129.563004,117.831467 
	C131.994141,117.746239 134.534409,117.156639 136.839172,117.655388 
	C155.654358,121.727036 171.642288,116.752106 184.953415,102.988884 
	C186.162125,101.739113 186.905807,100.039589 187.865463,98.548927 
	C187.443054,98.212761 187.020660,97.876595 186.598251,97.540428 
	C185.245453,98.766365 183.825653,99.926659 182.550278,101.228439 
	C170.307129,113.724922 155.616211,118.346413 138.493835,114.724266 
	C136.822845,114.370773 135.449677,112.609413 134.035736,110.662720 
M103.307304,73.972893 
	C103.476982,70.334000 103.556381,66.687958 103.843452,63.058346 
	C104.096169,59.863083 104.216743,56.389088 110.549507,57.441128 
	C108.383392,54.000015 107.389984,50.548122 105.416779,49.844692 
	C103.648216,49.214218 100.801163,51.609058 98.429916,52.669197 
	C99.006485,52.976013 99.583054,53.282829 100.159622,53.589645 
	C100.480057,55.777012 101.389214,58.066933 101.028816,60.135689 
	C97.828056,78.508965 103.174973,93.959671 116.557175,106.734978 
	C117.955910,108.070290 119.796761,108.942482 121.432487,110.029541 
	C121.716843,109.678032 122.001205,109.326530 122.285568,108.975021 
	C118.160347,104.008080 113.181549,99.507339 110.144211,93.946220 
	C106.953423,88.104156 105.621994,81.246574 103.307304,73.972893 
M278.110809,221.613663 
	C277.755615,217.005249 277.619843,212.361481 276.887299,207.813858 
	C276.709290,206.708710 274.671234,205.363815 273.305237,205.108170 
	C270.892181,204.656555 268.283356,204.648819 265.867889,205.079681 
	C264.749359,205.279221 263.121735,206.895401 263.050659,207.958008 
	C262.740417,212.595322 262.840332,217.267487 262.978424,221.921417 
	C263.007446,222.898041 263.569336,224.276184 264.329559,224.736923 
	C266.786621,226.226074 275.310150,224.545914 278.110809,221.613663 
M164.975952,214.599258 
	C165.729248,223.057938 172.840530,228.049652 179.786972,224.606125 
	C181.336548,223.837982 182.455399,221.137985 182.722824,219.183777 
	C182.935379,217.630432 181.907104,214.800888 180.787628,214.418701 
	C178.882996,213.768463 176.473557,214.596817 173.454590,214.881302 
	C174.681992,216.474030 174.899536,216.969604 175.278824,217.210541 
	C176.704407,218.116089 180.168472,217.650146 178.379196,220.642899 
	C177.807465,221.599167 174.375778,221.683960 172.749191,220.995087 
	C169.451202,219.598373 168.258179,216.468643 169.318481,213.065491 
	C170.500595,209.271408 173.211227,207.473572 177.403793,208.132767 
	C178.628845,208.325394 179.972427,207.764084 181.261688,207.548325 
	C180.171951,206.593460 179.227890,205.132324 177.967743,204.769730 
	C171.912186,203.027328 166.889511,206.631821 164.975952,214.599258 
M222.596436,205.009689 
	C221.529709,207.504929 220.462982,210.000168 219.334549,212.639740 
	C217.175949,212.639740 214.649948,212.639740 211.830475,212.639740 
	C211.830475,210.552551 212.063065,208.854736 211.736618,207.272278 
	C211.561951,206.425644 210.423935,205.777710 209.720657,205.040100 
	C209.151794,205.728745 208.107590,206.405319 208.089767,207.107941 
	C207.955246,212.410141 207.958847,217.719254 208.108643,223.020859 
	C208.126923,223.668106 209.268051,224.283600 209.888824,224.913818 
	C210.528549,224.281998 211.588074,223.729904 211.726166,223.002808 
	C212.084473,221.116226 212.037384,219.152649 212.180664,216.738373 
	C215.107681,216.868698 217.624390,216.980759 220.224670,217.096542 
	C220.398590,219.485626 220.356659,221.329849 220.744598,223.078720 
	C220.905655,223.804779 221.903625,224.612289 222.677811,224.833206 
	C223.129089,224.961960 224.446304,223.981583 224.428818,223.537430 
	C224.187454,217.402847 223.781799,211.274734 222.596436,205.009689 
M43.276005,213.571716 
	C43.275570,223.781677 43.275570,223.781677 46.746670,224.777222 
	C46.963531,222.636734 47.173622,220.563126 47.413815,218.192383 
	C51.125370,217.914688 54.872684,216.553650 55.518539,222.371506 
	C55.638798,223.454803 57.794842,224.312119 59.011356,225.273727 
	C59.353035,224.912384 59.694714,224.551025 60.036392,224.189682 
	C59.029259,220.015457 56.718491,216.076492 59.111526,211.460007 
	C59.720108,210.285980 57.779964,206.229568 56.423012,205.897110 
	C52.683758,204.981003 48.553635,204.876144 44.765064,205.531372 
	C43.886463,205.683304 43.752884,210.143127 43.276005,213.571716 
M141.126602,216.085205 
	C141.126602,215.011673 141.126602,213.938126 141.126602,211.476685 
	C144.769028,216.008835 147.467834,219.500092 150.335495,222.846649 
	C151.106613,223.746506 152.391296,224.206314 153.440216,224.868134 
	C153.939850,223.603149 154.816620,222.353928 154.870285,221.070312 
	C155.050659,216.756638 155.003860,212.429001 154.890717,208.110703 
	C154.862381,207.028610 154.260239,205.961563 153.921799,204.887604 
	C153.286362,204.915924 152.650940,204.944260 152.015503,204.972595 
	C151.697159,208.874405 151.378799,212.776230 151.010330,217.292221 
	C146.828079,212.511322 143.288864,208.465515 139.226501,203.821655 
	C137.021027,211.528305 137.611664,222.619446 141.127274,226.068039 
	C141.127274,222.220108 141.127274,219.572876 141.126602,216.085205 
M112.194427,219.366135 
	C112.364601,218.896667 112.617607,218.440033 112.692551,217.955826 
	C113.862045,210.400345 110.807846,205.103409 104.791153,205.004410 
	C93.307182,204.815460 95.554756,203.897858 95.336967,215.070496 
	C95.291550,217.400574 95.190216,219.748825 95.429207,222.056122 
	C95.530945,223.038391 96.214378,224.398331 97.022598,224.796219 
	C101.274246,226.889343 109.027168,224.341034 112.194427,219.366135 
M248.166687,214.325073 
	C248.154144,217.517471 248.525772,221.186249 243.919205,221.295029 
	C239.172150,221.407150 239.641113,217.654160 239.587112,214.498672 
	C239.550156,212.338852 239.775070,210.147415 239.466843,208.030716 
	C239.311401,206.963257 238.230835,206.030533 237.568573,205.036880 
	C236.857574,205.974243 235.604004,206.873306 235.534622,207.855972 
	C235.301361,211.159256 235.222336,214.521454 235.580170,217.807114 
	C236.110916,222.680695 239.243958,225.156464 244.056717,225.031204 
	C248.660492,224.911392 251.591156,222.034302 251.862411,217.108200 
	C252.026627,214.125824 252.045425,211.115646 251.816940,208.141983 
	C251.735321,207.079666 250.734100,206.088013 250.152618,205.064102 
	C249.494202,206.015152 248.448349,206.897125 248.263687,207.932663 
	C247.947662,209.704956 248.170670,211.573380 248.166687,214.325073 
M83.687531,216.800507 
	C82.975716,215.120987 82.414902,213.355209 81.516457,211.782288 
	C80.190842,209.461502 78.624924,207.277969 77.161339,205.035995 
	C75.728180,207.328003 74.047050,209.504898 72.917686,211.937912 
	C71.037827,215.987762 69.511749,220.201828 67.836693,224.346756 
	C68.189301,224.878220 68.541916,225.409698 68.894524,225.941162 
	C74.328300,218.892532 79.746300,218.185837 85.143532,225.829163 
	C85.520912,225.373795 85.898300,224.918442 86.275681,224.463074 
	C85.515099,222.145660 84.754517,219.828232 83.687531,216.800507 
M29.124825,204.915359 
	C25.179010,205.428513 20.909241,203.824554 17.200964,205.890045 
	C17.193571,206.371735 17.186178,206.853409 17.178787,207.335083 
	C19.103430,207.770645 21.028074,208.206207 23.202478,208.698303 
	C23.202478,213.038208 23.023788,217.183640 23.310068,221.296692 
	C23.397299,222.550003 24.764963,223.714172 25.546215,224.919174 
	C26.208065,223.754181 27.374983,222.616898 27.440727,221.419174 
	C27.674065,217.168137 27.531761,212.896469 27.531761,208.845810 
	C29.988018,208.100769 31.811005,207.547821 33.633991,206.994858 
	C33.594532,206.523392 33.555077,206.051926 33.515621,205.580460 
	C32.345013,205.359085 31.174400,205.137711 29.124825,204.915359 
M122.994080,215.480743 
	C123.000778,217.796814 122.845032,220.130707 123.096092,222.419968 
	C123.193176,223.305237 124.212326,224.089371 124.811401,224.919586 
	C125.499168,224.163101 126.755547,223.426331 126.782593,222.646912 
	C126.960350,217.524857 126.959282,212.390564 126.778694,207.268661 
	C126.751686,206.502747 125.476364,205.780853 124.778526,205.038589 
	C124.191154,205.882156 123.193825,206.681290 123.096634,207.577988 
	C122.848427,209.867966 123.001511,212.201431 122.994080,215.480743 
z"/>
<path fill="#38DEFF" opacity="1.000000" stroke="none" 
	d="
M169.723938,163.533844 
	C170.276016,172.301682 168.521393,179.953018 162.104721,185.753036 
	C151.293533,195.525238 135.419922,192.348618 129.820923,178.849716 
	C123.641159,163.950577 124.357620,148.797958 131.696625,134.439178 
	C137.409912,123.261124 149.792770,117.908234 161.108673,120.702049 
	C166.383606,122.004387 166.913025,122.933769 164.951721,127.917618 
	C164.117630,130.037125 163.070969,132.072968 161.846985,134.744797 
	C156.512192,131.600494 151.378784,130.285614 146.450577,134.590729 
	C142.473038,138.065384 139.469070,142.024902 139.369232,148.386780 
	C146.101807,147.531311 152.232407,142.655273 159.055862,146.487793 
	C165.634430,150.182739 168.315033,156.172791 169.723938,163.533844 
M156.625275,160.202774 
	C152.322052,155.551804 147.779678,154.832397 142.973145,158.040573 
	C138.854279,160.789764 137.571487,166.045151 139.831345,170.911972 
	C141.971466,175.520920 146.289810,177.840988 150.749222,176.777710 
	C155.739822,175.587769 158.654129,170.846832 158.030716,164.724838 
	C157.899078,163.432205 157.350327,162.182053 156.625275,160.202774 
z"/>
<path fill="#38DEFF" opacity="1.000000" stroke="none" 
	d="
M189.063553,189.241241 
	C182.077164,185.129578 178.974365,178.770966 177.144379,171.691727 
	C174.389420,161.034286 174.484451,150.310669 177.139648,139.635468 
	C177.658234,137.550507 178.370987,135.472885 179.298676,133.537857 
	C182.957657,125.905670 188.186188,119.992920 197.397400,120.150253 
	C206.520309,120.306084 212.188263,125.950447 215.174911,133.928360 
	C221.008560,149.511230 221.196121,165.247726 213.728577,180.379852 
	C208.765411,190.437103 199.793518,193.411545 189.063553,189.241241 
M189.174194,167.007217 
	C189.881729,168.682190 190.399826,170.471756 191.331039,172.011444 
	C194.606628,177.427383 200.343399,177.646698 202.952301,171.942535 
	C208.453156,159.915283 208.213364,147.441238 203.075287,135.371368 
	C200.918549,130.304977 194.385239,130.384811 191.377457,135.049637 
	C190.324188,136.683167 189.252655,138.666779 189.197830,140.520355 
	C188.944809,149.074127 189.047302,157.638412 189.174194,167.007217 
z"/>
<path fill="#38DEFF" opacity="1.000000" stroke="none" 
	d="
M80.183167,178.197876 
	C82.402275,175.295563 84.411331,172.682556 86.623489,169.805389 
	C88.815483,171.505554 90.513931,173.061646 92.433380,174.265381 
	C97.491440,177.437408 102.470764,176.324173 105.359962,171.539459 
	C108.446449,166.428009 107.080284,160.543045 101.746071,157.933411 
	C99.137291,156.657120 96.048607,156.339081 93.158089,155.669495 
	C91.285828,155.235779 89.379128,154.950668 85.839256,154.292404 
	C89.516640,149.944366 92.287338,146.615646 95.116928,143.337738 
	C97.869621,140.148911 100.682640,137.012161 103.469170,133.852539 
	C103.170769,133.174942 102.872368,132.497360 102.573967,131.819763 
	C98.002502,132.553284 93.445061,133.400925 88.852821,133.965424 
	C86.955208,134.198685 83.449074,134.237564 83.293594,133.659897 
	C82.284294,129.910095 81.928078,125.971237 81.635498,122.073448 
	C81.617134,121.828857 83.940826,121.125732 85.179276,121.114464 
	C94.671860,121.028130 104.167290,121.163811 113.657974,121.002983 
	C117.254608,120.942032 119.059013,122.650391 117.958427,125.763649 
	C116.112923,130.984085 113.704346,136.045090 111.089340,140.936157 
	C109.885361,143.188049 107.632759,144.879303 105.590286,147.115280 
	C106.536964,147.901077 107.156097,148.698196 107.967781,149.046158 
	C119.517502,153.997513 121.831497,165.598999 117.835945,176.960297 
	C114.138924,187.472778 104.098091,193.186356 92.655983,190.721298 
	C88.446503,189.814423 84.528290,187.214523 80.697495,185.004974 
	C77.919098,183.402420 77.408966,180.972977 80.183167,178.197876 
z"/>
<path fill="#45E0FE" opacity="1.000000" stroke="none" 
	d="
M122.847198,40.831360 
	C125.199387,38.050850 127.095261,39.588959 128.532074,41.167809 
	C132.331635,45.342976 136.447159,43.964252 140.049850,41.504448 
	C141.537766,40.488548 142.293732,37.600986 142.399643,35.514782 
	C142.685486,29.883863 146.636047,31.290071 149.935837,30.982576 
	C153.589966,30.642061 154.749847,32.204979 155.230194,35.728989 
	C156.309418,43.646515 162.464355,46.195496 168.781708,41.169594 
	C172.717911,38.038067 174.449188,40.443146 176.917801,42.799744 
	C179.345001,45.116802 180.646255,46.903507 178.049637,50.240021 
	C172.994644,56.735424 175.404755,63.044800 183.402512,63.805771 
	C189.018875,64.340164 187.717453,67.855293 188.101700,71.185127 
	C188.560913,75.164635 186.702393,76.396835 183.136063,76.855537 
	C175.606934,77.823936 172.949585,84.121338 177.828888,90.109566 
	C180.692581,93.624054 179.284653,95.380600 176.757065,97.888649 
	C174.133347,100.492096 172.200195,102.163475 168.486954,99.146431 
	C162.912277,94.616966 156.105164,97.279274 155.387115,104.348877 
	C154.890945,109.234085 152.531464,109.580772 148.543121,109.770844 
	C144.110901,109.982063 142.774765,108.090576 142.208954,104.188431 
	C141.242905,97.526093 134.817123,94.722633 129.630707,98.860855 
	C126.047203,101.720116 123.882935,100.969917 120.843597,98.016380 
	C117.791504,95.050453 117.657394,92.951729 120.212936,89.648155 
	C124.594360,83.984253 121.797813,77.797295 114.468582,76.869232 
	C110.416817,76.356178 109.248619,74.480873 109.424133,70.617416 
	C109.586662,67.039513 109.488846,64.309013 114.375984,63.823288 
	C121.951698,63.070351 124.861450,56.400032 120.026108,50.714390 
	C115.712311,45.641987 120.201645,43.859371 122.847198,40.831360 
M138.186249,45.541996 
	C132.759872,50.512676 129.452927,44.317909 125.089935,42.720104 
	C123.654778,44.222973 122.345955,45.593552 121.027802,46.973896 
	C124.124611,51.204613 126.658859,54.161274 124.425850,60.143005 
	C122.074753,66.441063 117.455261,66.080009 113.243256,67.321243 
	C112.556282,73.237282 112.580673,73.119164 118.019531,74.242142 
	C119.657013,74.580231 121.987732,75.408035 122.507431,76.640999 
	C124.662796,81.754486 128.401001,87.162781 122.225822,92.229362 
	C121.890022,92.504875 121.835747,93.123497 121.652405,93.577484 
	C123.649582,97.972595 126.108826,98.007599 129.732040,95.097839 
	C134.444412,91.313408 144.363266,95.478676 144.861038,101.452835 
	C145.245987,106.073235 146.955154,107.829643 151.836990,106.226791 
	C153.015274,101.924538 152.812134,97.519989 158.804413,94.734688 
	C165.283630,91.723045 168.207504,95.865433 172.414856,98.059021 
	C173.919312,96.430367 175.133743,95.115677 176.448639,93.692230 
	C175.353027,92.047699 174.467606,90.658485 173.522614,89.311012 
	C170.152985,84.506203 174.125412,74.707520 179.998627,74.263229 
	C184.983093,73.886169 185.926270,71.732521 184.484512,67.194054 
	C180.039673,66.201599 175.981842,66.040604 173.222092,60.057705 
	C170.255310,53.626015 174.758575,51.024963 176.325272,46.590622 
	C175.062149,45.179005 173.881668,43.859749 172.635361,42.466927 
	C168.040939,45.166161 165.189682,48.552017 158.887558,45.908043 
	C152.610168,43.274452 153.229950,38.646473 151.708313,34.453491 
	C147.513153,33.281315 144.820908,34.070404 145.011734,38.832096 
	C145.186218,43.185738 142.351425,44.463791 138.186249,45.541996 
z"/>
<path fill="#44E0FE" opacity="1.000000" stroke="none" 
	d="
M193.673798,79.261475 
	C196.753540,58.979645 189.619446,43.214691 173.318848,31.161741 
	C173.813202,30.708302 174.307556,30.254860 174.801910,29.801420 
	C176.452286,30.732521 178.327637,31.408278 179.718597,32.633816 
	C195.384399,46.436649 200.707413,63.489838 195.809387,83.832993 
	C195.198334,86.370872 195.725937,89.182907 195.725937,93.126923 
	C194.487625,93.360268 191.209259,95.018600 189.492676,94.012421 
	C187.733383,92.981216 187.502579,89.342308 186.250748,85.867599 
	C193.339554,87.660675 192.429199,82.773972 193.673798,79.261475 
z"/>
<path fill="#47E0FE" opacity="1.000000" stroke="none" 
	d="
M170.530151,29.768951 
	C168.079681,30.623978 165.948700,31.297840 163.148300,32.183388 
	C163.356033,29.991703 163.472778,28.760059 163.645569,26.937065 
	C141.042435,20.738905 122.984459,27.772915 108.870728,46.782261 
	C108.473038,46.279858 108.075340,45.777451 107.677650,45.275047 
	C108.640839,43.566479 109.361717,41.653419 110.604477,40.180779 
	C123.962410,24.351974 140.791641,18.717419 161.068253,23.008770 
	C163.355057,23.492752 165.879745,22.852703 168.294128,22.733887 
	C168.735031,22.216368 169.175934,21.698849 169.616821,21.181328 
	C170.027756,23.983482 170.438705,26.785635 170.530151,29.768951 
z"/>
<path fill="#44E0FE" opacity="1.000000" stroke="none" 
	d="
M133.987000,111.082138 
	C135.449677,112.609413 136.822845,114.370773 138.493835,114.724266 
	C155.616211,118.346413 170.307129,113.724922 182.550278,101.228439 
	C183.825653,99.926659 185.245453,98.766365 186.598251,97.540428 
	C187.020660,97.876595 187.443054,98.212761 187.865463,98.548927 
	C186.905807,100.039589 186.162125,101.739113 184.953415,102.988884 
	C171.642288,116.752106 155.654358,121.727036 136.839172,117.655388 
	C134.534409,117.156639 131.994141,117.746239 129.563004,117.831467 
	C129.106201,118.358650 128.649399,118.885826 128.192596,119.413010 
	C127.662354,116.657669 127.132103,113.902336 126.601852,111.146996 
	C129.076050,110.927719 131.280533,106.568230 133.987000,111.082138 
z"/>
<path fill="#45E0FE" opacity="1.000000" stroke="none" 
	d="
M103.392670,74.402832 
	C105.621994,81.246574 106.953423,88.104156 110.144211,93.946220 
	C113.181549,99.507339 118.160347,104.008080 122.285568,108.975021 
	C122.001205,109.326530 121.716843,109.678032 121.432487,110.029541 
	C119.796761,108.942482 117.955910,108.070290 116.557175,106.734978 
	C103.174973,93.959671 97.828056,78.508965 101.028816,60.135689 
	C101.389214,58.066933 100.480057,55.777012 100.159622,53.589645 
	C99.583054,53.282829 99.006485,52.976013 98.429916,52.669197 
	C100.801163,51.609058 103.648216,49.214218 105.416779,49.844692 
	C107.389984,50.548122 108.383392,54.000015 110.549507,57.441128 
	C104.216743,56.389088 104.096169,59.863083 103.843452,63.058346 
	C103.556381,66.687958 103.476982,70.334000 103.392670,74.402832 
z"/>
<path fill="#3CDEFF" opacity="1.000000" stroke="none" 
	d="
M277.959259,221.974060 
	C275.310150,224.545914 266.786621,226.226074 264.329559,224.736923 
	C263.569336,224.276184 263.007446,222.898041 262.978424,221.921417 
	C262.840332,217.267487 262.740417,212.595322 263.050659,207.958008 
	C263.121735,206.895401 264.749359,205.279221 265.867889,205.079681 
	C268.283356,204.648819 270.892181,204.656555 273.305237,205.108170 
	C274.671234,205.363815 276.709290,206.708710 276.887299,207.813858 
	C277.619843,212.361481 277.755615,217.005249 277.959259,221.974060 
M274.347290,220.115295 
	C274.385132,213.920029 270.217163,216.522690 267.147064,216.322586 
	C267.147064,218.288010 267.147064,219.864105 267.147064,222.286301 
	C269.680115,221.727341 271.802856,221.258926 274.347290,220.115295 
M267.137573,208.864487 
	C266.521454,211.264771 266.587952,213.403366 269.884796,212.858917 
	C271.228363,212.637024 272.411560,211.444168 273.667725,210.693085 
	C272.023102,209.841064 270.388763,208.967697 268.722290,208.160843 
	C268.482483,208.044739 268.087616,208.248962 267.137573,208.864487 
z"/>
<path fill="#44E0FE" opacity="1.000000" stroke="none" 
	d="
M164.988373,214.194397 
	C166.889511,206.631821 171.912186,203.027328 177.967743,204.769730 
	C179.227890,205.132324 180.171951,206.593460 181.261688,207.548340 
	C179.972427,207.764084 178.628845,208.325394 177.403793,208.132767 
	C173.211227,207.473572 170.500595,209.271408 169.318481,213.065491 
	C168.258179,216.468643 169.451202,219.598373 172.749191,220.995087 
	C174.375778,221.683960 177.807465,221.599167 178.379196,220.642899 
	C180.168472,217.650146 176.704407,218.116089 175.278824,217.210541 
	C174.899536,216.969604 174.681992,216.474030 173.454590,214.881302 
	C176.473557,214.596817 178.882996,213.768463 180.787628,214.418701 
	C181.907104,214.800888 182.935379,217.630432 182.722824,219.183777 
	C182.455399,221.137985 181.336548,223.837982 179.786972,224.606125 
	C172.840530,228.049652 165.729248,223.057938 164.988373,214.194397 
z"/>
<path fill="#4CE1FF" opacity="1.000000" stroke="none" 
	d="
M223.006409,205.077362 
	C223.781799,211.274734 224.187454,217.402847 224.428818,223.537430 
	C224.446304,223.981583 223.129089,224.961960 222.677811,224.833206 
	C221.903625,224.612289 220.905655,223.804779 220.744598,223.078720 
	C220.356659,221.329849 220.398590,219.485626 220.224670,217.096542 
	C217.624390,216.980759 215.107681,216.868698 212.180664,216.738373 
	C212.037384,219.152649 212.084473,221.116226 211.726166,223.002808 
	C211.588074,223.729904 210.528549,224.281998 209.888824,224.913818 
	C209.268051,224.283600 208.126923,223.668106 208.108643,223.020859 
	C207.958847,217.719254 207.955246,212.410141 208.089767,207.107941 
	C208.107590,206.405319 209.151794,205.728745 209.720673,205.040100 
	C210.423935,205.777710 211.561951,206.425644 211.736618,207.272278 
	C212.063065,208.854736 211.830475,210.552551 211.830475,212.639740 
	C214.649948,212.639740 217.175949,212.639740 219.334549,212.639740 
	C220.462982,210.000168 221.529709,207.504929 223.006409,205.077362 
z"/>
<path fill="#44E0FE" opacity="1.000000" stroke="none" 
	d="
M43.276245,213.096207 
	C43.752884,210.143127 43.886463,205.683304 44.765064,205.531372 
	C48.553635,204.876144 52.683758,204.981003 56.423012,205.897110 
	C57.779964,206.229568 59.720108,210.285980 59.111526,211.460007 
	C56.718491,216.076492 59.029259,220.015457 60.036392,224.189682 
	C59.694714,224.551025 59.353035,224.912384 59.011356,225.273727 
	C57.794842,224.312119 55.638798,223.454803 55.518539,222.371506 
	C54.872684,216.553650 51.125370,217.914688 47.413815,218.192383 
	C47.173622,220.563126 46.963531,222.636734 46.746670,224.777222 
	C43.275570,223.781677 43.275570,223.781677 43.276245,213.096207 
M47.116299,209.689835 
	C46.629940,213.040192 47.439823,215.632553 51.426914,214.586578 
	C53.015244,214.169907 55.367344,212.079391 55.310524,210.845810 
	C55.147060,207.297012 51.914200,208.070129 49.524006,208.085632 
	C48.781528,208.090424 48.042282,208.593689 47.116299,209.689835 
z"/>
<path fill="#3CDEFF" opacity="1.000000" stroke="none" 
	d="
M141.126938,216.505432 
	C141.127274,219.572876 141.127274,222.220108 141.127274,226.068039 
	C137.611664,222.619446 137.021027,211.528305 139.226501,203.821655 
	C143.288864,208.465515 146.828079,212.511322 151.010330,217.292221 
	C151.378799,212.776230 151.697159,208.874405 152.015503,204.972595 
	C152.650940,204.944260 153.286362,204.915924 153.921799,204.887604 
	C154.260239,205.961563 154.862381,207.028610 154.890717,208.110703 
	C155.003860,212.429001 155.050659,216.756638 154.870285,221.070312 
	C154.816620,222.353928 153.939850,223.603149 153.440216,224.868134 
	C152.391296,224.206314 151.106613,223.746506 150.335495,222.846649 
	C147.467834,219.500092 144.769028,216.008835 141.126602,211.476685 
	C141.126602,213.938126 141.126602,215.011673 141.126938,216.505432 
z"/>
<path fill="#3CDEFF" opacity="1.000000" stroke="none" 
	d="
M112.054245,219.737381 
	C109.027168,224.341034 101.274246,226.889343 97.022598,224.796219 
	C96.214378,224.398331 95.530945,223.038391 95.429207,222.056122 
	C95.190216,219.748825 95.291550,217.400574 95.336967,215.070496 
	C95.554756,203.897858 93.307182,204.815460 104.791153,205.004410 
	C110.807846,205.103409 113.862045,210.400345 112.692551,217.955826 
	C112.617607,218.440033 112.364601,218.896667 112.054245,219.737381 
M106.388107,208.815109 
	C104.179626,208.506607 101.971146,208.198105 99.467880,207.848419 
	C99.467880,212.878189 99.467880,217.245850 99.467880,223.100098 
	C102.824577,221.680313 106.190376,221.275772 107.690895,219.388321 
	C110.070938,216.394547 109.774620,212.527618 106.388107,208.815109 
z"/>
<path fill="#44E0FE" opacity="1.000000" stroke="none" 
	d="
M248.167007,213.863251 
	C248.170670,211.573380 247.947662,209.704956 248.263687,207.932663 
	C248.448349,206.897125 249.494202,206.015152 250.152618,205.064102 
	C250.734100,206.088013 251.735321,207.079666 251.816940,208.141983 
	C252.045425,211.115646 252.026627,214.125824 251.862411,217.108200 
	C251.591156,222.034302 248.660492,224.911392 244.056717,225.031204 
	C239.243958,225.156464 236.110916,222.680695 235.580170,217.807114 
	C235.222336,214.521454 235.301361,211.159256 235.534622,207.855972 
	C235.604004,206.873306 236.857574,205.974243 237.568573,205.036880 
	C238.230835,206.030533 239.311401,206.963257 239.466843,208.030716 
	C239.775070,210.147415 239.550156,212.338852 239.587112,214.498672 
	C239.641113,217.654160 239.172150,221.407150 243.919205,221.295029 
	C248.525772,221.186249 248.154144,217.517471 248.167007,213.863251 
z"/>
<path fill="#45E0FE" opacity="1.000000" stroke="none" 
	d="
M83.840736,217.155655 
	C84.754517,219.828232 85.515099,222.145660 86.275681,224.463074 
	C85.898300,224.918442 85.520912,225.373795 85.143532,225.829163 
	C79.746300,218.185837 74.328300,218.892532 68.894524,225.941162 
	C68.541916,225.409698 68.189301,224.878220 67.836693,224.346756 
	C69.511749,220.201828 71.037827,215.987762 72.917686,211.937912 
	C74.047050,209.504898 75.728180,207.328003 77.161331,205.035995 
	C78.624924,207.277969 80.190842,209.461502 81.516457,211.782288 
	C82.414902,213.355209 82.975716,215.120987 83.840736,217.155655 
z"/>
<path fill="#44E0FE" opacity="1.000000" stroke="none" 
	d="
M29.564308,204.915848 
	C31.174400,205.137711 32.345013,205.359085 33.515621,205.580460 
	C33.555077,206.051926 33.594532,206.523392 33.633991,206.994858 
	C31.811005,207.547821 29.988018,208.100769 27.531761,208.845810 
	C27.531761,212.896469 27.674065,217.168137 27.440727,221.419174 
	C27.374983,222.616898 26.208065,223.754181 25.546211,224.919174 
	C24.764963,223.714172 23.397299,222.550003 23.310068,221.296692 
	C23.023788,217.183640 23.202478,213.038208 23.202478,208.698303 
	C21.028074,208.206207 19.103430,207.770645 17.178787,207.335083 
	C17.186178,206.853409 17.193571,206.371735 17.200964,205.890045 
	C20.909241,203.824554 25.179010,205.428513 29.564308,204.915848 
z"/>
<path fill="#4CE1FF" opacity="1.000000" stroke="none" 
	d="
M122.994072,214.999115 
	C123.001511,212.201431 122.848427,209.867966 123.096634,207.577988 
	C123.193825,206.681290 124.191154,205.882156 124.778526,205.038589 
	C125.476364,205.780853 126.751686,206.502747 126.778694,207.268661 
	C126.959282,212.390564 126.960350,217.524857 126.782593,222.646912 
	C126.755547,223.426331 125.499168,224.163101 124.811401,224.919586 
	C124.212326,224.089371 123.193176,223.305237 123.096092,222.419968 
	C122.845032,220.130707 123.000778,217.796814 122.994072,214.999115 
z"/>
<path fill="#FAFEFF" opacity="1.000000" stroke="none" 
	d="
M156.809509,160.557556 
	C157.350327,162.182053 157.899078,163.432205 158.030716,164.724838 
	C158.654129,170.846832 155.739822,175.587769 150.749222,176.777710 
	C146.289810,177.840988 141.971466,175.520920 139.831345,170.911972 
	C137.571487,166.045151 138.854279,160.789764 142.973145,158.040573 
	C147.779678,154.832397 152.322052,155.551804 156.809509,160.557556 
z"/>
<path fill="#FAFEFF" opacity="1.000000" stroke="none" 
	d="
M189.098267,166.603073 
	C189.047302,157.638412 188.944809,149.074127 189.197830,140.520355 
	C189.252655,138.666779 190.324188,136.683167 191.377457,135.049637 
	C194.385239,130.384811 200.918549,130.304977 203.075287,135.371368 
	C208.213364,147.441238 208.453156,159.915283 202.952301,171.942535 
	C200.343399,177.646698 194.606628,177.427383 191.331039,172.011444 
	C190.399826,170.471756 189.881729,168.682190 189.098267,166.603073 
z"/>
<path fill="#F5FDFF" opacity="1.000000" stroke="none" 
	d="
M138.534897,45.384361 
	C142.351425,44.463791 145.186218,43.185738 145.011734,38.832096 
	C144.820908,34.070404 147.513153,33.281315 151.708313,34.453491 
	C153.229950,38.646473 152.610168,43.274452 158.887558,45.908043 
	C165.189682,48.552017 168.040939,45.166161 172.635361,42.466927 
	C173.881668,43.859749 175.062149,45.179005 176.325272,46.590622 
	C174.758575,51.024963 170.255310,53.626015 173.222092,60.057705 
	C175.981842,66.040604 180.039673,66.201599 184.484512,67.194054 
	C185.926270,71.732521 184.983093,73.886169 179.998627,74.263229 
	C174.125412,74.707520 170.152985,84.506203 173.522614,89.311012 
	C174.467606,90.658485 175.353027,92.047699 176.448639,93.692230 
	C175.133743,95.115677 173.919312,96.430367 172.414856,98.059021 
	C168.207504,95.865433 165.283630,91.723045 158.804413,94.734688 
	C152.812134,97.519989 153.015274,101.924538 151.836990,106.226791 
	C146.955154,107.829643 145.245987,106.073235 144.861038,101.452835 
	C144.363266,95.478676 134.444412,91.313408 129.732040,95.097839 
	C126.108826,98.007599 123.649582,97.972595 121.652405,93.577484 
	C121.835747,93.123497 121.890022,92.504875 122.225822,92.229362 
	C128.401001,87.162781 124.662796,81.754486 122.507431,76.640999 
	C121.987732,75.408035 119.657013,74.580231 118.019531,74.242142 
	C112.580673,73.119164 112.556282,73.237282 113.243256,67.321243 
	C117.455261,66.080009 122.074753,66.441063 124.425850,60.143005 
	C126.658859,54.161274 124.124611,51.204613 121.027802,46.973896 
	C122.345955,45.593552 123.654778,44.222973 125.089935,42.720104 
	C129.452927,44.317909 132.759872,50.512676 138.534897,45.384361 
M127.412659,79.846741 
	C133.748276,91.873024 145.910782,96.828712 157.509979,92.110092 
	C168.762466,87.532524 174.751953,75.385857 171.409760,63.921452 
	C167.679153,51.124805 154.463364,43.944645 141.922897,47.901211 
	C128.705704,52.071289 122.430244,65.291328 127.412659,79.846741 
z"/>
<path fill="#F5FDFF" opacity="1.000000" stroke="none" 
	d="
M274.136414,220.452911 
	C271.802856,221.258926 269.680115,221.727341 267.147064,222.286301 
	C267.147064,219.864105 267.147064,218.288010 267.147064,216.322586 
	C270.217163,216.522690 274.385132,213.920029 274.136414,220.452911 
z"/>
<path fill="#EDFCFF" opacity="1.000000" stroke="none" 
	d="
M267.451050,208.584717 
	C268.087616,208.248962 268.482483,208.044739 268.722290,208.160843 
	C270.388763,208.967697 272.023102,209.841064 273.667725,210.693085 
	C272.411560,211.444168 271.228363,212.637024 269.884796,212.858917 
	C266.587952,213.403366 266.521454,211.264771 267.451050,208.584717 
z"/>
<path fill="#EDFCFF" opacity="1.000000" stroke="none" 
	d="
M47.208923,209.279297 
	C48.042282,208.593689 48.781528,208.090424 49.524006,208.085632 
	C51.914200,208.070129 55.147060,207.297012 55.310524,210.845810 
	C55.367344,212.079391 53.015244,214.169907 51.426914,214.586578 
	C47.439823,215.632553 46.629940,213.040192 47.208923,209.279297 
z"/>
<path fill="#F5FDFF" opacity="1.000000" stroke="none" 
	d="
M106.713379,209.070175 
	C109.774620,212.527618 110.070938,216.394547 107.690895,219.388321 
	C106.190376,221.275772 102.824577,221.680313 99.467880,223.100098 
	C99.467880,217.245850 99.467880,212.878189 99.467880,207.848419 
	C101.971146,208.198105 104.179626,208.506607 106.713379,209.070175 
z"/>
<path fill="#47E0FE" opacity="1.000000" stroke="none" 
	d="
M127.252563,79.495041 
	C122.430244,65.291328 128.705704,52.071289 141.922897,47.901211 
	C154.463364,43.944645 167.679153,51.124805 171.409760,63.921452 
	C174.751953,75.385857 168.762466,87.532524 157.509979,92.110092 
	C145.910782,96.828712 133.748276,91.873024 127.252563,79.495041 
M137.042191,53.417805 
	C128.987579,60.086605 126.369934,67.992798 129.299713,76.802788 
	C131.999771,84.922028 139.520615,90.599426 148.022720,90.936577 
	C156.713074,91.281197 164.670471,86.088280 168.017548,77.888191 
	C171.246994,69.976318 168.904297,60.528553 162.265961,54.692822 
	C155.621979,48.852123 146.381180,48.209133 137.042191,53.417805 
z"/>
<path fill="#EDFCFF" opacity="1.000000" stroke="none" 
	d="
M137.346039,53.198891 
	C146.381180,48.209133 155.621979,48.852123 162.265961,54.692822 
	C168.904297,60.528553 171.246994,69.976318 168.017548,77.888191 
	C164.670471,86.088280 156.713074,91.281197 148.022720,90.936577 
	C139.520615,90.599426 131.999771,84.922028 129.299713,76.802788 
	C126.369934,67.992798 128.987579,60.086605 137.346039,53.198891 
M141.246094,54.389122 
	C132.943481,59.371361 129.697128,66.494240 131.914963,74.862831 
	C133.925049,82.447487 140.456085,87.785896 148.257462,87.915459 
	C155.804810,88.040802 161.333572,84.543114 164.714478,77.825882 
	C167.731781,71.831024 166.596054,63.525093 162.051208,58.660866 
	C156.435532,52.650547 149.618576,51.427975 141.246094,54.389122 
z"/>
<path fill="#47E0FE" opacity="1.000000" stroke="none" 
	d="
M141.608032,54.223892 
	C149.618576,51.427975 156.435532,52.650547 162.051208,58.660866 
	C166.596054,63.525093 167.731781,71.831024 164.714478,77.825882 
	C161.333572,84.543114 155.804810,88.040802 148.257462,87.915459 
	C140.456085,87.785896 133.925049,82.447487 131.914963,74.862831 
	C129.697128,66.494240 132.943481,59.371361 141.608032,54.223892 
M153.603058,56.313801 
	C140.128616,52.852680 132.348801,64.315750 134.331772,73.279709 
	C135.838272,80.089737 141.713974,84.915977 148.604630,85.029922 
	C155.278595,85.140282 161.351349,80.572906 163.037613,74.174744 
	C164.969650,66.844017 161.870911,60.592007 153.603058,56.313801 
z"/>
<path fill="#F5FDFF" opacity="1.000000" stroke="none" 
	d="
M153.976593,56.480377 
	C161.870911,60.592007 164.969650,66.844017 163.037613,74.174744 
	C161.351349,80.572906 155.278595,85.140282 148.604630,85.029922 
	C141.713974,84.915977 135.838272,80.089737 134.331772,73.279709 
	C132.348801,64.315750 140.128616,52.852680 153.976593,56.480377 
M146.568375,71.081017 
	C147.062469,71.145363 147.654877,71.057335 148.033051,71.301338 
	C149.421036,72.196960 150.835999,73.106606 151.976959,74.269768 
	C152.150604,74.446793 150.849548,76.805840 150.368713,76.758308 
	C148.573074,76.580826 146.739029,76.011101 145.121033,75.190811 
	C144.446060,74.848618 144.276657,73.509224 143.877380,72.623245 
	C142.186554,76.518242 142.186554,76.518242 149.770279,83.191383 
	C151.577347,79.766685 155.267456,75.908882 154.509277,73.389961 
	C153.627823,70.461426 148.848312,68.706169 145.204895,66.034187 
	C145.332153,65.841751 146.155106,63.914173 146.625793,63.996662 
	C149.620483,64.521477 152.537460,65.489693 157.134766,66.774147 
	C153.927322,63.222221 151.526642,60.563709 149.137543,57.918007 
	C147.391098,59.355408 145.909042,60.565044 144.438004,61.787937 
	C140.705536,64.890778 141.230423,68.506035 146.568375,71.081017 
z"/>
<path fill="#47E0FE" opacity="1.000000" stroke="none" 
	d="
M146.167236,71.025482 
	C141.230423,68.506035 140.705536,64.890778 144.438004,61.787937 
	C145.909042,60.565044 147.391098,59.355408 149.137543,57.918007 
	C151.526642,60.563709 153.927322,63.222221 157.134766,66.774147 
	C152.537460,65.489693 149.620483,64.521477 146.625793,63.996662 
	C146.155106,63.914173 145.332153,65.841751 145.204895,66.034187 
	C148.848312,68.706169 153.627823,70.461426 154.509277,73.389961 
	C155.267456,75.908882 151.577347,79.766685 149.770279,83.191383 
	C142.186554,76.518242 142.186554,76.518242 143.877380,72.623245 
	C144.276657,73.509224 144.446060,74.848618 145.121033,75.190811 
	C146.739029,76.011101 148.573074,76.580826 150.368713,76.758308 
	C150.849548,76.805840 152.150604,74.446793 151.976959,74.269768 
	C150.835999,73.106606 149.421036,72.196960 148.033051,71.301338 
	C147.654877,71.057335 147.062469,71.145363 146.167236,71.025482 
z"/>
</svg>